<svg width="431" height="60" viewBox="0 0 431 60" fill="none" xmlns="http://www.w3.org/2000/svg">
<path fill-rule="evenodd" clip-rule="evenodd" d="M427.847 41.2714C428.763 38.1354 428.888 34.4173 428.502 30.0208C425.749 -1.30585 422.997 -1.28036 267.523 0.159447C225.299 0.550467 171.812 1.0458 104.002 1.04579C93.8242 1.04579 84.4084 0.907073 75.7481 0.779488C24.8952 0.0303225 0.0921021 -0.335077 0.0921021 30.0208C0.0921021 57.2276 41.5911 55.8615 81.3635 54.5522C89.7902 54.2748 98.1394 53.9999 106 53.9999C185.083 53.9999 245.326 55.1996 291.037 56.1098C357.716 57.4376 393.473 58.1497 411.68 53.624L414.453 54.4469L424.355 57.3857L430.298 59.1495L429.456 53.0078L427.93 41.8745L427.847 41.2714Z" fill="#1573FF"/>
</svg>
