<svg width="1440" height="3284" viewBox="0 0 1440 3284" fill="none" xmlns="http://www.w3.org/2000/svg">
<path d="M-39.7057 3268.36L-385.226 2116.66C-420.46 1999.21 -301.351 1883.27 -225.619 1961.29L-80.6079 2110.68C-8.8034 2184.65 105.732 2083.48 81.9553 1967.09L-45.3583 1343.85C-69.4596 1225.85 48.0806 1124.62 119.078 1202.23L597.858 1725.67C669.905 1804.44 788.797 1699.21 761.577 1580.77L663.339 1153.34C637.299 1040.06 746.389 935.362 820.798 1002.23L925.032 1095.89C995.315 1159.03 1099.8 1068.55 1084.81 957.522L984.427 214.117C969.409 102.903 1074.23 12.4084 1144.44 75.976L1999.46 849.975" stroke="#6F3689" stroke-opacity="0.12" stroke-width="100"/>
</svg>
