<svg width="1440" height="2948" viewBox="0 0 1440 2948" fill="none" xmlns="http://www.w3.org/2000/svg">
<path d="M-575.829 517.806L363.092 63.9131C458.835 17.6283 558.06 158.431 496.054 252.589L377.321 432.885C318.529 522.161 405.432 657.872 500.665 625.504L1010.58 452.185C1107.12 419.374 1194.16 558.725 1132.35 647.134L715.441 1243.33C652.709 1333.05 743.09 1473.92 839.905 1437.31L1189.28 1305.21C1281.88 1270.19 1371.52 1399.2 1318.66 1491.41L1244.63 1620.59C1194.72 1707.69 1272.51 1831.55 1363.58 1809.99L1973.39 1665.64C2064.61 1644.04 2142.42 1768.31 2092.16 1855.34L1480.18 2915.13" stroke="#6F3689" stroke-opacity="0.12" stroke-width="100"/>
</svg>
