<svg width="66" height="66" viewBox="0 0 66 66" fill="none" xmlns="http://www.w3.org/2000/svg">
<rect width="66" height="66" rx="33" fill="#1573FF"/>
<g clip-path="url(#clip0_463_10)">
<path fill-rule="evenodd" clip-rule="evenodd" d="M32.2922 40.393H33.9337C33.9337 40.393 34.4297 40.3428 34.6827 40.0916C34.9158 39.8608 34.9083 39.4277 34.9083 39.4277C34.9083 39.4277 34.8763 37.3998 35.8986 37.1012C36.9064 36.8071 38.2005 39.0611 39.5721 39.9279C40.6093 40.5837 41.3975 40.4399 41.3975 40.4399L45.0651 40.393C45.0651 40.393 46.9837 40.2841 46.0739 38.8954C45.9994 38.7817 45.5442 37.8679 43.3471 35.9904C41.0474 34.0254 41.3554 34.3432 44.1256 30.9441C45.8126 28.8739 46.487 27.6101 46.2764 27.0688C46.0754 26.5533 44.8346 26.6895 44.8346 26.6895L40.7052 26.7132C40.7052 26.7132 40.399 26.6748 40.172 26.7997C39.9502 26.9223 39.8074 27.2078 39.8074 27.2078C39.8074 27.2078 39.1538 28.8098 38.2821 30.1721C36.4433 33.0468 35.7081 33.1985 35.4076 33.02C34.7085 32.604 34.883 31.3487 34.883 30.457C34.883 27.6712 35.3419 26.5097 33.9893 26.209C33.5404 26.1091 33.21 26.0432 32.0622 26.0326C30.5887 26.0185 29.3416 26.0367 28.6354 26.3552C28.1657 26.567 27.8033 27.039 28.024 27.0661C28.2969 27.0997 28.9151 27.2195 29.2428 27.6304C29.6659 28.1604 29.651 29.3507 29.651 29.3507C29.651 29.3507 29.8941 32.6301 29.0832 33.0375C28.5266 33.3169 27.763 32.7464 26.1236 30.1385C25.2837 28.8026 24.6495 27.3259 24.6495 27.3259C24.6495 27.3259 24.5272 27.05 24.3091 26.9024C24.0444 26.7235 23.6745 26.6665 23.6745 26.6665L19.7504 26.6902C19.7504 26.6902 19.1614 26.7053 18.9451 26.9411C18.7527 27.1509 18.9298 27.5847 18.9298 27.5847C18.9298 27.5847 22.002 34.2018 25.4805 37.5364C28.6701 40.5937 32.2922 40.393 32.2922 40.393Z" fill="white"/>
</g>
<defs>
<clipPath id="clip0_463_10">
<rect width="29" height="15" fill="white" transform="translate(18 26)"/>
</clipPath>
</defs>
</svg>
