<svg width="216" height="55" viewBox="0 0 216 55" fill="none" xmlns="http://www.w3.org/2000/svg">
<path fill-rule="evenodd" clip-rule="evenodd" d="M210.929 35.2158C211.518 32.9126 211.816 30.3351 211.816 27.4522C211.816 -0.665808 193.287 -0.444997 136.708 0.229243C126.942 0.345621 116.043 0.475508 103.91 0.475505C93.7321 0.475502 84.3162 0.336785 75.6559 0.209198C24.8031 -0.539979 0 -0.905386 0 29.4505C0 56.6573 41.499 55.2912 81.2714 53.9819C89.6981 53.7045 98.0473 53.4296 105.908 53.4296C116.639 53.4296 126.651 53.6094 135.899 53.7754C162.556 54.2539 182.864 54.6184 195.738 50.236L195.663 50.3734L201.087 51.3904L209.081 52.8889L215.005 53.9996L213.727 48.1094L211.229 36.5957L210.929 35.2158Z" fill="#1573FF"/>
</svg>
