<svg width="392" height="58" viewBox="0 0 392 58" fill="none" xmlns="http://www.w3.org/2000/svg">
<path fill-rule="evenodd" clip-rule="evenodd" d="M389.139 37.512C390.396 34.7463 391 31.5924 391 28C391 -2.85535 355.304 -2.28574 230.765 -0.298466C195.873 0.258297 154.009 0.926336 104.002 1.04577C93.5205 1.0708 83.847 0.941216 74.9746 0.822359C24.6438 0.148116 0.0921021 -0.180784 0.0921021 30.0207C0.0921021 57.2276 41.5911 55.8614 81.3635 54.5521C89.7902 54.2747 98.1394 53.9999 106 53.9999C156.034 53.9999 198.325 54.7518 233.742 55.3816C303.613 56.6239 346.728 57.3905 369.748 50.969L369.552 51.1609L376.075 53.0968L385.977 56.0356L391.92 57.7994L391.078 51.6577L389.552 40.5244L389.139 37.512Z" fill="#1573FF"/>
</svg>
