<svg width="553" height="569" viewBox="0 0 553 569" fill="none" xmlns="http://www.w3.org/2000/svg">
<path d="M387.047 410.316C338.512 455.16 286.252 486.718 241.012 501.505C195.728 516.305 157.676 514.246 137.306 492.199C116.937 470.153 117.887 432.057 136.216 388.083C154.527 344.152 190.114 294.546 238.649 249.703C287.185 204.858 339.445 173.299 384.684 158.512C429.969 143.712 468.021 145.771 488.391 167.818C508.76 189.865 507.809 227.96 489.48 271.936C471.169 315.866 435.583 365.471 387.047 410.316Z" stroke="#6F3689"/>
<path d="M480.405 217.226L499.775 244.161L527.584 226.068L500.65 245.439L518.742 273.247L499.372 246.313L471.563 264.405L498.498 245.035L480.405 217.226Z" fill="#FDC949"/>
<path d="M502.853 227.735L500.477 244.618L517.075 248.517L500.192 246.141L496.293 262.738L498.67 245.855L482.072 241.957L498.955 244.333L502.853 227.735Z" fill="#FDC949"/>
</svg>
